<svg xmlns="http://www.w3.org/2000/svg" xmlns:xlink="http://www.w3.org/1999/xlink" xmlns:svgjs="http://svgjs.com/svgjs" width="512" height="512" x="0" y="0" viewBox="0 0 512 512" style="enable-background:new 0 0 512 512" xml:space="preserve" class=""><g><g xmlns="http://www.w3.org/2000/svg">	<g>		<rect x="261.034" y="245.176" width="15.103" height="15.103" fill="#ffffff" data-original="#000000" style="" class=""></rect>	</g></g><g xmlns="http://www.w3.org/2000/svg">	<g>		<path d="M495.135,333.278v23.08l-15.103-25.172v-28.114h-15.103v22.655h-125.86v-65.447h17.62v-15.103h-17.62v-90.62H318.93    v-2.517V84.578h-15.103v26.63c-4.318-5.049-9.408-9.418-15.103-12.9V45.813h-10.069v-9.565c0-9.845-6.314-18.239-15.103-21.356V0    h-15.103v14.892c-8.789,3.117-15.103,11.511-15.103,21.356v9.565h-10.069v52.495c-5.695,3.481-10.786,7.851-15.103,12.9v-26.63    H193.07v67.461v2.517h-20.138v90.62h-17.62v15.103h17.62v65.447H47.072v-22.655H31.968v28.114l-15.103,25.172v-23.08H1.762V512    h508.476V333.278H495.135z M339.068,340.83h129.136l21.145,35.241h-150.28V340.83z M248.448,36.248    c0-4.164,3.387-7.552,7.552-7.552c4.164,0,7.552,3.387,7.552,7.552v9.565h-15.103V36.248z M238.38,60.916h35.241v30.721    c-5.595-1.635-11.504-2.528-17.62-2.528c-6.117,0-12.025,0.894-17.62,2.528V60.916z M208.173,152.039    c0-26.371,21.456-47.827,47.827-47.827s47.827,21.456,47.827,47.827v2.517h-95.654V152.039z M188.035,260.279h57.896v-15.103    h-57.896V169.66h135.929v75.516h-32.724v15.103h32.724v40.275h-15.103v-2.517c0-12.492-10.162-22.655-22.655-22.655    c-12.492,0-22.655,10.162-22.655,22.655v2.517h-15.103v-2.517c0-12.492-10.162-22.655-22.655-22.655s-22.655,10.162-22.655,22.655    v2.517h-15.103V260.279z M293.758,298.037v27.689h-15.103v-27.689c0-4.164,3.387-7.552,7.552-7.552    C290.371,290.486,293.758,293.873,293.758,298.037z M233.345,298.037v27.689h-15.103v-27.689c0-4.164,3.387-7.552,7.552-7.552    S233.345,293.873,233.345,298.037z M43.796,340.83h129.136v35.241H22.651L43.796,340.83z M16.865,391.174h156.067v75.516H16.865    V391.174z M218.242,496.897H16.865v-15.103h201.377V496.897z M278.655,496.897h-45.31v-52.861    c0-12.492,10.162-22.655,22.655-22.655c12.492,0,22.655,10.162,22.655,22.655V496.897z M243.414,393.691    c0-3.676,5.93-12.098,12.59-19.408c6.656,7.3,12.582,15.717,12.582,19.408c0,6.94-5.646,12.586-12.586,12.586    C249.06,406.277,243.414,400.632,243.414,393.691z M276.461,412.327c4.488-4.923,7.228-11.465,7.228-18.635    c0-13.333-17.218-30.687-22.495-35.688L256,353.081l-5.195,4.923c-5.277,5.001-22.495,22.355-22.495,35.688    c0,7.171,2.741,13.713,7.228,18.635c-10.397,6.733-17.297,18.426-17.297,31.709v22.655h-30.206V315.658h15.103v25.172h45.31    v-25.172h15.103v25.172h45.31v-25.172h15.103V466.69h-30.206v-22.655C293.758,430.754,286.859,419.06,276.461,412.327z     M495.135,496.897H293.758v-15.103h201.377V496.897z M495.135,466.69H339.068v-75.516h156.067V466.69z" fill="#ffffff" data-original="#000000" style="" class=""></path>	</g></g><g xmlns="http://www.w3.org/2000/svg">	<g>		<path d="M256,184.763c-12.492,0-22.655,10.162-22.655,22.655s10.162,22.655,22.655,22.655c12.492,0,22.655-10.162,22.655-22.655    S268.492,184.763,256,184.763z M256,214.97c-4.164,0-7.552-3.387-7.552-7.552s3.387-7.552,7.552-7.552    c4.164,0,7.552,3.387,7.552,7.552S260.164,214.97,256,214.97z" fill="#ffffff" data-original="#000000" style="" class=""></path>	</g></g><g xmlns="http://www.w3.org/2000/svg">	<g>		<path d="M458.383,97.164c-1.906,0-3.802,0.174-5.676,0.521c-7.112-7.976-17.286-12.603-28.155-12.603    c-15.952,0-30.046,10.1-35.434,24.7c-11.66,2.421-20.448,12.773-20.448,25.141c0,14.158,11.518,25.676,25.675,25.676h64.038    c17.489,0,31.717-14.228,31.717-31.717C490.1,111.392,475.872,97.164,458.383,97.164z M458.383,145.495h-64.038    c-5.83,0-10.572-4.742-10.572-10.572c0-5.786,4.672-10.501,10.441-10.571c0.157,0.01,0.315,0.02,0.473,0.025l6.394,0.219    l1.267-6.272c2.122-10.51,11.46-18.138,22.204-18.138c7.659,0,14.747,3.835,18.96,10.259l3.325,5.071l5.669-2.151    c1.919-0.728,3.897-1.096,5.878-1.096c9.161,0,16.614,7.453,16.614,16.614C474.997,138.042,467.544,145.495,458.383,145.495z" fill="#ffffff" data-original="#000000" style="" class=""></path>	</g></g><g xmlns="http://www.w3.org/2000/svg">	<g>		<path d="M118.863,30.71c-2.862,0-5.707,0.314-8.508,0.936C101.316,20.882,88.006,14.6,73.754,14.6    c-20.691,0-38.915,13.414-45.356,32.627c-15.082,2.439-26.636,15.55-26.636,31.31c0,17.489,14.228,31.717,31.717,31.717h85.384    c21.93,0,39.772-17.842,39.772-39.772S140.792,30.71,118.863,30.71z M118.863,95.151H33.479c-9.161,0-16.614-7.453-16.614-16.614    c0-9.128,7.399-16.56,16.513-16.615l0.046,0.003c0.201,0.014,0.402,0.026,0.605,0.033l6.387,0.21l1.265-6.264    c3.066-15.183,16.555-26.203,32.073-26.203c11.065,0,21.301,5.539,27.383,14.816l3.325,5.072l5.67-2.151    c2.845-1.079,5.783-1.626,8.731-1.626c13.602,0,24.669,11.067,24.669,24.669C143.531,84.085,132.465,95.151,118.863,95.151z" fill="#ffffff" data-original="#000000" style="" class=""></path>	</g></g><g xmlns="http://www.w3.org/2000/svg">	<g>		<rect x="248.448" y="468.201" width="15.103" height="15.103" fill="#ffffff" data-original="#000000" style="" class=""></rect>	</g></g><g xmlns="http://www.w3.org/2000/svg">	<g>		<rect x="248.448" y="437.994" width="15.103" height="15.103" fill="#ffffff" data-original="#000000" style="" class=""></rect>	</g></g><g xmlns="http://www.w3.org/2000/svg">	<g>		<rect x="293.758" y="398.726" width="15.103" height="15.103" fill="#ffffff" data-original="#000000" style="" class=""></rect>	</g></g><g xmlns="http://www.w3.org/2000/svg">	<g>		<rect x="293.758" y="353.416" width="15.103" height="30.206" fill="#ffffff" data-original="#000000" style="" class=""></rect>	</g></g><g xmlns="http://www.w3.org/2000/svg">	<g>		<rect x="202.635" y="184.763" width="15.103" height="15.103" fill="#ffffff" data-original="#000000" style="" class=""></rect>	</g></g><g xmlns="http://www.w3.org/2000/svg">	<g>		<rect x="293.758" y="182.246" width="15.103" height="15.103" fill="#ffffff" data-original="#000000" style="" class=""></rect>	</g></g><g xmlns="http://www.w3.org/2000/svg">	<g>		<rect x="293.758" y="212.452" width="15.103" height="15.103" fill="#ffffff" data-original="#000000" style="" class=""></rect>	</g></g><g xmlns="http://www.w3.org/2000/svg">	<g>		<rect x="42.037" y="403.76" width="15.103" height="50.344" fill="#ffffff" data-original="#000000" style="" class=""></rect>	</g></g><g xmlns="http://www.w3.org/2000/svg">	<g>		<rect x="72.244" y="403.76" width="15.103" height="50.344" fill="#ffffff" data-original="#000000" style="" class=""></rect>	</g></g><g xmlns="http://www.w3.org/2000/svg">	<g>		<rect x="102.45" y="403.76" width="15.103" height="50.344" fill="#ffffff" data-original="#000000" style="" class=""></rect>	</g></g><g xmlns="http://www.w3.org/2000/svg">	<g>		<rect x="132.657" y="403.76" width="15.103" height="50.344" fill="#ffffff" data-original="#000000" style="" class=""></rect>	</g></g><g xmlns="http://www.w3.org/2000/svg">	<g>		<rect x="358.702" y="350.899" width="15.103" height="15.103" fill="#ffffff" data-original="#000000" style="" class=""></rect>	</g></g><g xmlns="http://www.w3.org/2000/svg">	<g>		<rect x="388.909" y="350.899" width="15.103" height="15.103" fill="#ffffff" data-original="#000000" style="" class=""></rect>	</g></g><g xmlns="http://www.w3.org/2000/svg">	<g>		<rect x="419.115" y="350.899" width="35.241" height="15.103" fill="#ffffff" data-original="#000000" style="" class=""></rect>	</g></g><g xmlns="http://www.w3.org/2000/svg">	<g>		<rect x="91.878" y="350.899" width="30.207" height="15.103" fill="#ffffff" data-original="#000000" style="" class=""></rect>	</g></g><g xmlns="http://www.w3.org/2000/svg">	<g>		<rect x="61.672" y="350.899" width="15.103" height="15.103" fill="#ffffff" data-original="#000000" style="" class=""></rect>	</g></g><g xmlns="http://www.w3.org/2000/svg">	<g>		<rect x="454.859" y="403.76" width="15.103" height="50.344" fill="#ffffff" data-original="#000000" style="" class=""></rect>	</g></g><g xmlns="http://www.w3.org/2000/svg">	<g>		<rect x="424.653" y="403.76" width="15.103" height="50.344" fill="#ffffff" data-original="#000000" style="" class=""></rect>	</g></g><g xmlns="http://www.w3.org/2000/svg">	<g>		<rect x="394.446" y="403.76" width="15.103" height="50.344" fill="#ffffff" data-original="#000000" style="" class=""></rect>	</g></g><g xmlns="http://www.w3.org/2000/svg">	<g>		<rect x="364.24" y="403.76" width="15.103" height="50.344" fill="#ffffff" data-original="#000000" style="" class=""></rect>	</g></g><g xmlns="http://www.w3.org/2000/svg">	<g>		<rect x="248.448" y="119.819" width="15.103" height="21.145" fill="#ffffff" data-original="#000000" style="" class=""></rect>	</g></g><g xmlns="http://www.w3.org/2000/svg">	<g>		<rect x="54.623" y="63.937" width="15.103" height="15.103" fill="#ffffff" data-original="#000000" style="" class=""></rect>	</g></g><g xmlns="http://www.w3.org/2000/svg">	<g>		<rect x="84.83" y="63.937" width="42.289" height="15.103" fill="#ffffff" data-original="#000000" style="" class=""></rect>	</g></g><g xmlns="http://www.w3.org/2000/svg">	<g>		<rect x="418.108" y="115.288" width="15.103" height="15.103" fill="#ffffff" data-original="#000000" style="" class=""></rect>	</g></g><g xmlns="http://www.w3.org/2000/svg"></g><g xmlns="http://www.w3.org/2000/svg"></g><g xmlns="http://www.w3.org/2000/svg"></g><g xmlns="http://www.w3.org/2000/svg"></g><g xmlns="http://www.w3.org/2000/svg"></g><g xmlns="http://www.w3.org/2000/svg"></g><g xmlns="http://www.w3.org/2000/svg"></g><g xmlns="http://www.w3.org/2000/svg"></g><g xmlns="http://www.w3.org/2000/svg"></g><g xmlns="http://www.w3.org/2000/svg"></g><g xmlns="http://www.w3.org/2000/svg"></g><g xmlns="http://www.w3.org/2000/svg"></g><g xmlns="http://www.w3.org/2000/svg"></g><g xmlns="http://www.w3.org/2000/svg"></g><g xmlns="http://www.w3.org/2000/svg"></g></g></svg>