<svg xmlns="http://www.w3.org/2000/svg" xmlns:xlink="http://www.w3.org/1999/xlink" xmlns:svgjs="http://svgjs.com/svgjs" width="512" height="512" x="0" y="0" viewBox="0 0 512 512" style="enable-background:new 0 0 512 512" xml:space="preserve" class=""><g><g xmlns="http://www.w3.org/2000/svg">	<g>		<path d="M393.5,433.499v-22.5h-15v22.5h-15v-22.5h-15v22.5h-24.735l-17.487-65.713c4.151-1.309,8.23-2.78,12.235-4.397    c-0.095,4.837,1.081,9.758,3.672,14.245c3.672,6.361,9.603,10.912,16.698,12.813c2.369,0.635,4.773,0.949,7.163,0.949    c4.765,0,9.468-1.25,13.705-3.696c6.361-3.673,10.912-9.603,12.813-16.698c1.901-7.095,0.925-14.506-2.748-20.867    c-2.549-4.415-6.187-7.955-10.545-10.345c10.608-8.33,20.189-17.911,28.519-28.519c2.39,4.358,5.93,7.996,10.345,10.545    c4.237,2.447,8.94,3.696,13.705,3.696c2.389,0,4.793-0.314,7.162-0.949c7.095-1.901,13.025-6.452,16.698-12.813    c3.673-6.361,4.648-13.772,2.747-20.868c-1.901-7.095-6.451-13.025-12.813-16.698c-4.487-2.591-9.408-3.767-14.245-3.672    c4.978-12.329,8.526-25.381,10.445-38.951c4.14,2.498,8.987,3.939,14.165,3.939c15.164,0,27.5-12.336,27.5-27.5    s-12.336-27.5-27.5-27.5c-5.178,0-10.025,1.44-14.165,3.939c-1.919-13.574-5.469-26.629-10.449-38.962    c0.182,0.004,0.363,0.018,0.545,0.018c4.662,0,9.385-1.185,13.704-3.679c6.361-3.672,10.912-9.603,12.813-16.698    c1.901-7.095,0.926-14.506-2.747-20.868c-3.673-6.362-9.603-10.912-16.698-12.813c-7.094-1.901-14.506-0.926-20.867,2.748    c-4.415,2.549-7.955,6.187-10.345,10.545c-8.33-10.608-17.911-20.189-28.519-28.519c4.358-2.39,7.996-5.93,10.545-10.345    c3.673-6.361,4.648-13.772,2.748-20.867c-1.901-7.095-6.452-13.025-12.813-16.698c-6.362-3.674-13.773-4.648-20.868-2.747    c-7.095,1.901-13.025,6.451-16.698,12.813c-2.591,4.487-3.767,9.408-3.672,14.245c-12.329-4.978-25.381-8.526-38.951-10.445    c2.498-4.14,3.939-8.987,3.939-14.165c0-15.164-12.336-27.5-27.5-27.5S228.5,12.835,228.5,27.999    c0,5.178,1.44,10.025,3.939,14.165c-13.57,1.919-26.622,5.467-38.951,10.445c0.095-4.837-1.081-9.758-3.672-14.245    c-3.672-6.361-9.603-10.912-16.698-12.813c-7.094-1.903-14.506-0.926-20.868,2.747c-6.361,3.673-10.912,9.603-12.813,16.698    c-1.901,7.095-0.925,14.506,2.748,20.867c2.549,4.415,6.187,7.955,10.545,10.345c-10.608,8.33-20.189,17.911-28.519,28.519    c-2.39-4.358-5.93-7.996-10.345-10.545c-6.362-3.673-13.773-4.648-20.867-2.748c-7.095,1.901-13.025,6.452-16.698,12.813    c-3.673,6.361-4.648,13.772-2.747,20.868c1.901,7.095,6.451,13.025,12.813,16.698c4.32,2.494,9.041,3.679,13.704,3.679    c0.182,0,0.363-0.014,0.545-0.018c-4.98,12.332-8.53,25.388-10.449,38.962c-4.142-2.497-8.989-3.937-14.167-3.937    c-15.164,0-27.5,12.336-27.5,27.5s12.336,27.5,27.5,27.5c5.178,0,10.025-1.44,14.165-3.939    c1.919,13.57,5.467,26.622,10.445,38.952c-4.837-0.095-9.758,1.081-14.245,3.671c-6.361,3.672-10.912,9.603-12.813,16.698    c-1.901,7.095-0.926,14.506,2.747,20.868c3.673,6.362,9.603,10.912,16.698,12.813c2.369,0.635,4.773,0.949,7.162,0.949    c4.765,0,9.468-1.25,13.705-3.696c4.415-2.549,7.955-6.187,10.345-10.545c8.33,10.608,17.911,20.189,28.519,28.519    c-4.358,2.39-7.996,5.93-10.545,10.345c-3.673,6.361-4.648,13.772-2.748,20.867c1.901,7.095,6.452,13.025,12.813,16.698    c4.237,2.447,8.94,3.696,13.705,3.696c2.389,0,4.793-0.314,7.163-0.949c7.095-1.901,13.025-6.451,16.698-12.813    c2.591-4.487,3.767-9.408,3.672-14.245c4.005,1.617,8.084,3.088,12.235,4.397l-17.486,65.714H163.5v-22.5h-15v22.5h-15v-22.5h-15    v22.5H0v15h512v-15H393.5z M436,195.499c6.893,0,12.5,5.607,12.5,12.5s-5.607,12.5-12.5,12.5s-12.5-5.607-12.5-12.5    S429.107,195.499,436,195.499z M76,220.499c-6.893,0-12.5-5.607-12.5-12.5s5.607-12.5,12.5-12.5s12.5,5.607,12.5,12.5    S82.893,220.499,76,220.499z M358.074,367.118c-0.864,3.225-2.933,5.921-5.824,7.59c-2.892,1.67-6.26,2.114-9.485,1.249    c-3.225-0.864-5.92-2.932-7.59-5.824c-1.67-2.892-2.113-6.26-1.249-9.485s2.933-5.921,5.824-7.59    c1.926-1.112,4.063-1.68,6.229-1.68c1.085,0,2.179,0.143,3.256,0.432c3.225,0.864,5.92,2.933,7.59,5.824    S358.938,363.893,358.074,367.118z M411.905,285.493c2.166,0,4.304,0.568,6.23,1.68c2.892,1.669,4.959,4.365,5.824,7.59    c0.865,3.225,0.421,6.594-1.249,9.485s-4.365,4.96-7.59,5.824c-3.224,0.865-6.594,0.42-9.485-1.249    c-2.892-1.669-4.96-4.365-5.824-7.59c-0.864-3.225-0.421-6.594,1.249-9.485s4.365-4.96,7.59-5.824    C409.726,285.635,410.819,285.493,411.905,285.493z M399.811,114.764c0.864-3.225,2.933-5.92,5.824-7.59    c1.926-1.112,4.063-1.68,6.229-1.68c1.086,0,2.179,0.143,3.255,0.431c3.225,0.864,5.921,2.933,7.59,5.824s2.113,6.26,1.249,9.485    c-0.864,3.225-2.932,5.92-5.824,7.59c-2.892,1.67-6.259,2.112-9.485,1.249c-3.225-0.864-5.921-2.933-7.59-5.824    S398.946,117.988,399.811,114.764z M335.175,45.863c1.669-2.892,4.365-4.959,7.59-5.824c1.077-0.289,2.17-0.432,3.256-0.432    c2.166,0,4.304,0.568,6.229,1.68c2.892,1.669,4.96,4.365,5.824,7.59c0.864,3.225,0.42,6.593-1.249,9.485    c-1.669,2.892-4.365,4.96-7.59,5.824c-3.225,0.865-6.594,0.42-9.485-1.249c-2.892-1.669-4.96-4.365-5.824-7.59    C333.062,52.124,333.505,48.756,335.175,45.863z M256,15.499c6.893,0,12.5,5.607,12.5,12.5s-5.607,12.5-12.5,12.5    s-12.5-5.607-12.5-12.5S249.107,15.499,256,15.499z M153.926,48.879c0.864-3.225,2.933-5.921,5.824-7.59    c1.926-1.112,4.063-1.68,6.229-1.68c1.086,0,2.179,0.143,3.256,0.432c3.225,0.864,5.92,2.932,7.59,5.824    c1.67,2.892,2.113,6.26,1.249,9.485c-0.864,3.225-2.933,5.921-5.824,7.59c-2.892,1.669-6.261,2.113-9.485,1.249    c-3.225-0.864-5.92-2.933-7.59-5.824C153.505,55.473,153.062,52.103,153.926,48.879z M93.865,128.824    c-2.892-1.669-4.959-4.365-5.824-7.59c-0.865-3.225-0.421-6.594,1.249-9.485c1.67-2.891,4.365-4.96,7.59-5.824    c1.077-0.289,2.169-0.431,3.255-0.431c2.166,0,4.303,0.568,6.229,1.68c2.892,1.669,4.96,4.365,5.824,7.59    c0.864,3.225,0.421,6.594-1.249,9.485c-1.67,2.891-4.365,4.96-7.59,5.824C100.126,130.937,96.757,130.493,93.865,128.824z     M112.189,301.233c-0.864,3.225-2.933,5.92-5.824,7.59c-2.892,1.67-6.261,2.113-9.485,1.249c-3.225-0.864-5.921-2.933-7.59-5.824    c-1.669-2.891-2.113-6.26-1.249-9.485s2.932-5.92,5.824-7.59c1.926-1.112,4.064-1.68,6.23-1.68c1.085,0,2.179,0.143,3.255,0.431    c3.225,0.864,5.921,2.933,7.59,5.824S113.054,298.009,112.189,301.233z M176.825,370.134c-1.669,2.892-4.365,4.959-7.59,5.824    c-3.225,0.865-6.594,0.421-9.485-1.249c-2.892-1.669-4.96-4.365-5.824-7.59c-0.864-3.225-0.42-6.593,1.249-9.485    c1.669-2.892,4.365-4.96,7.59-5.824c1.077-0.289,2.17-0.432,3.256-0.432c2.166,0,4.304,0.568,6.229,1.68    c2.892,1.669,4.96,4.365,5.824,7.59C178.938,363.874,178.495,367.241,176.825,370.134z M103.5,207.999    c0-84.089,68.411-152.5,152.5-152.5s152.5,68.411,152.5,152.5c0,67.91-44.623,125.586-106.085,145.269l-3.863-14.517    c55.053-17.96,94.948-69.78,94.948-130.752c0-75.818-61.682-137.5-137.5-137.5s-137.5,61.682-137.5,137.5    c0,60.972,39.895,112.792,94.948,130.752l-3.863,14.517C148.123,333.585,103.5,275.908,103.5,207.999z M256,360.499    c-10.946,0-21.622-1.169-31.92-3.371l3.862-14.511c9.062,1.886,18.446,2.882,28.059,2.882c9.613,0,18.997-0.996,28.059-2.882    l3.862,14.511C277.622,359.329,266.946,360.499,256,360.499z M268.5,387.999c0,6.893-5.607,12.5-12.5,12.5s-12.5-5.607-12.5-12.5    s5.607-12.5,12.5-12.5S268.5,381.105,268.5,387.999z M282.452,200.499c-0.589-2.075-1.414-4.052-2.448-5.897l67.713-67.713    c17.591,19.869,28.839,45.471,30.547,73.61H282.452z M378.264,215.499c-1.708,28.139-12.956,53.741-30.547,73.61l-67.713-67.713    c1.034-1.845,1.859-3.822,2.448-5.897H378.264z M269.397,183.994c-1.845-1.034-3.822-1.859-5.897-2.448V85.735    c28.139,1.708,53.741,12.956,73.61,30.547L269.397,183.994z M268.5,207.999c0,6.893-5.607,12.5-12.5,12.5s-12.5-5.607-12.5-12.5    s5.607-12.5,12.5-12.5S268.5,201.105,268.5,207.999z M280.194,328.095c-7.824,1.574-15.914,2.404-24.194,2.404    c-8.281,0-16.37-0.831-24.194-2.404L256,237.176L280.194,328.095z M248.5,181.546c-2.075,0.589-4.052,1.414-5.897,2.448    l-67.713-67.713c19.869-17.591,45.471-28.839,73.61-30.547V181.546z M231.996,194.601c-1.034,1.845-1.859,3.822-2.448,5.897    h-95.812c1.708-28.139,12.956-53.741,30.547-73.61L231.996,194.601z M229.548,215.499c0.589,2.075,1.414,4.052,2.448,5.897    l-67.713,67.713c-17.591-19.869-28.839-45.471-30.547-73.61H229.548z M241.584,233.02l-24.273,91.213    c-15.815-5.278-30.201-13.699-42.421-24.519L241.584,233.02z M270.416,233.02l66.694,66.694    c-12.22,10.819-26.607,19.241-42.421,24.519L270.416,233.02z M293.5,433.499v-14.5h-15v14.5h-45v-14.5h-15v14.5h-14.743    l16.462-61.86c4.022,0.879,8.097,1.612,12.22,2.195c-2.498,4.14-3.939,8.987-3.939,14.165c0,15.164,12.336,27.5,27.5,27.5    s27.5-12.336,27.5-27.5c0-5.178-1.44-10.025-3.939-14.165c4.123-0.583,8.198-1.316,12.22-2.195l16.462,61.86H293.5z" fill="#ffffff" data-original="#000000" style="" class=""></path>	</g></g><g xmlns="http://www.w3.org/2000/svg">	<g>		<path d="M433.903,1.74l-9.805,11.353c3.663,3.163,7.283,6.472,10.76,9.834l10.427-10.785    C441.606,8.585,437.777,5.085,433.903,1.74z" fill="#ffffff" data-original="#000000" style="" class=""></path>	</g></g><g xmlns="http://www.w3.org/2000/svg">	<g>		<path d="M456.064,23.163L445.05,33.347c3.284,3.552,6.512,7.245,9.593,10.977l11.567-9.55    C462.951,30.827,459.538,26.92,456.064,23.163z" fill="#ffffff" data-original="#000000" style="" class=""></path>	</g></g><g xmlns="http://www.w3.org/2000/svg">	<g>		<path d="M475.688,46.936l-12.086,8.884c9.455,12.863,17.745,26.657,24.638,40.998l13.52-6.499    C494.465,75.142,485.693,60.546,475.688,46.936z" fill="#ffffff" data-original="#000000" style="" class=""></path>	</g></g><g xmlns="http://www.w3.org/2000/svg">	<g>		<path d="M452.233,65.667l-12.131,8.822c2.833,3.896,5.58,7.936,8.164,12.009l12.666-8.035    C458.179,74.123,455.252,69.817,452.233,65.667z" fill="#ffffff" data-original="#000000" style="" class=""></path>	</g></g><g xmlns="http://www.w3.org/2000/svg">	<g>		<path d="M432.493,41.856l-10.919,10.284c3.305,3.509,6.541,7.17,9.618,10.881l11.548-9.573    C439.462,49.494,436.014,45.595,432.493,41.856z" fill="#ffffff" data-original="#000000" style="" class=""></path>	</g></g><g xmlns="http://www.w3.org/2000/svg">	<g>		<path d="M468.799,91.788l-13.153,7.211c7.357,13.42,13.364,27.621,17.853,42.206l14.336-4.412    C483.048,121.238,476.644,106.097,468.799,91.788z" fill="#ffffff" data-original="#000000" style="" class=""></path>	</g></g><g xmlns="http://www.w3.org/2000/svg">	<g>		<path d="M23.76,319.178l-13.52,6.499c7.295,15.177,16.067,29.773,26.072,43.383l12.086-8.883    C38.943,347.314,30.653,333.52,23.76,319.178z" fill="#ffffff" data-original="#000000" style="" class=""></path>	</g></g><g xmlns="http://www.w3.org/2000/svg">	<g>		<path d="M57.358,371.673l-11.568,9.55c3.259,3.947,6.672,7.854,10.146,11.61L66.95,382.65    C63.666,379.098,60.439,375.405,57.358,371.673z" fill="#ffffff" data-original="#000000" style="" class=""></path>	</g></g><g xmlns="http://www.w3.org/2000/svg">	<g>		<path d="M77.142,393.072l-10.427,10.784c3.679,3.556,7.508,7.056,11.382,10.402l9.805-11.352    C84.239,399.743,80.619,396.434,77.142,393.072z" fill="#ffffff" data-original="#000000" style="" class=""></path>	</g></g><g xmlns="http://www.w3.org/2000/svg">	<g>		<path d="M80.808,352.975l-11.548,9.573c3.278,3.955,6.726,7.854,10.247,11.592l10.919-10.284    C87.121,360.348,83.885,356.686,80.808,352.975z" fill="#ffffff" data-original="#000000" style="" class=""></path>	</g></g><g xmlns="http://www.w3.org/2000/svg">	<g>		<path d="M38.501,274.793l-14.336,4.412c4.787,15.554,11.191,30.696,19.036,45.005l13.153-7.211    C48.997,303.578,42.99,289.377,38.501,274.793z" fill="#ffffff" data-original="#000000" style="" class=""></path>	</g></g><g xmlns="http://www.w3.org/2000/svg">	<g>		<path d="M63.735,329.499l-12.666,8.035c2.753,4.34,5.68,8.645,8.699,12.796l12.131-8.822    C69.066,337.613,66.319,333.572,63.735,329.499z" fill="#ffffff" data-original="#000000" style="" class=""></path>	</g></g><g xmlns="http://www.w3.org/2000/svg">	<g>		<rect x="14" y="496.499" width="42" height="15" fill="#ffffff" data-original="#000000" style="" class=""></rect>	</g></g><g xmlns="http://www.w3.org/2000/svg">	<g>		<rect x="79" y="473.499" width="27" height="15" fill="#ffffff" data-original="#000000" style="" class=""></rect>	</g></g><g xmlns="http://www.w3.org/2000/svg">	<g>		<rect x="31" y="457.499" width="18" height="15" fill="#ffffff" data-original="#000000" style="" class=""></rect>	</g></g><g xmlns="http://www.w3.org/2000/svg">	<g>		<rect x="146" y="490.499" width="51" height="15" fill="#ffffff" data-original="#000000" style="" class=""></rect>	</g></g><g xmlns="http://www.w3.org/2000/svg">	<g>		<rect x="130" y="462.499" width="21" height="15" fill="#ffffff" data-original="#000000" style="" class=""></rect>	</g></g><g xmlns="http://www.w3.org/2000/svg">	<g>		<rect x="199" y="462.499" width="58" height="15" fill="#ffffff" data-original="#000000" style="" class=""></rect>	</g></g><g xmlns="http://www.w3.org/2000/svg">	<g>		<rect x="260" y="490.499" width="36" height="15" fill="#ffffff" data-original="#000000" style="" class=""></rect>	</g></g><g xmlns="http://www.w3.org/2000/svg">	<g>		<rect x="302" y="461.499" width="31" height="15" fill="#ffffff" data-original="#000000" style="" class=""></rect>	</g></g><g xmlns="http://www.w3.org/2000/svg">	<g>		<rect x="337" y="492.499" width="37" height="15" fill="#ffffff" data-original="#000000" style="" class=""></rect>	</g></g><g xmlns="http://www.w3.org/2000/svg">	<g>		<rect x="381" y="461.499" width="46" height="15" fill="#ffffff" data-original="#000000" style="" class=""></rect>	</g></g><g xmlns="http://www.w3.org/2000/svg">	<g>		<rect x="422" y="493.499" width="16" height="15" fill="#ffffff" data-original="#000000" style="" class=""></rect>	</g></g><g xmlns="http://www.w3.org/2000/svg">	<g>		<rect x="452" y="472.499" width="23" height="15" fill="#ffffff" data-original="#000000" style="" class=""></rect>	</g></g><g xmlns="http://www.w3.org/2000/svg">	<g>		<rect x="487" y="460.499" width="18" height="15" fill="#ffffff" data-original="#000000" style="" class=""></rect>	</g></g><g xmlns="http://www.w3.org/2000/svg">	<g>		<rect x="495" y="496.499" width="16" height="15" fill="#ffffff" data-original="#000000" style="" class=""></rect>	</g></g><g xmlns="http://www.w3.org/2000/svg"></g><g xmlns="http://www.w3.org/2000/svg"></g><g xmlns="http://www.w3.org/2000/svg"></g><g xmlns="http://www.w3.org/2000/svg"></g><g xmlns="http://www.w3.org/2000/svg"></g><g xmlns="http://www.w3.org/2000/svg"></g><g xmlns="http://www.w3.org/2000/svg"></g><g xmlns="http://www.w3.org/2000/svg"></g><g xmlns="http://www.w3.org/2000/svg"></g><g xmlns="http://www.w3.org/2000/svg"></g><g xmlns="http://www.w3.org/2000/svg"></g><g xmlns="http://www.w3.org/2000/svg"></g><g xmlns="http://www.w3.org/2000/svg"></g><g xmlns="http://www.w3.org/2000/svg"></g><g xmlns="http://www.w3.org/2000/svg"></g></g></svg>