<svg xmlns="http://www.w3.org/2000/svg" xmlns:xlink="http://www.w3.org/1999/xlink" xmlns:svgjs="http://svgjs.com/svgjs" width="512" height="512" x="0" y="0" viewBox="0 0 512 512" style="enable-background:new 0 0 512 512" xml:space="preserve" class=""><g><g xmlns="http://www.w3.org/2000/svg">	<g>		<path d="M488.5,495.76v-15.048c11.528-3.274,20-13.889,20-26.452v-61c0-15.163-12.336-27.5-27.5-27.5s-27.5,12.337-27.5,27.5    v6.518c-3.753-1.924-8-3.018-12.5-3.018c-7.875,0-14.982,3.333-20,8.655c-5.018-5.323-12.125-8.655-20-8.655    c-15.164,0-27.5,12.337-27.5,27.5v30c0,12.563,8.472,23.178,20,26.452v15.048h-65v-30h-15.276l-15-400h-10.551L256,1.24    l-31.673,64.52h-10.551l-15,400H183.5v30h-65v-15.048c11.528-3.274,20-13.889,20-26.452v-30c0-15.163-12.336-27.5-27.5-27.5    c-7.875,0-14.982,3.333-20,8.655c-5.018-5.323-12.125-8.655-20-8.655c-4.5,0-8.747,1.093-12.5,3.018v-6.518    c0-15.163-12.336-27.5-27.5-27.5s-27.5,12.337-27.5,27.5v61c0,12.563,8.472,23.178,20,26.452v15.048H0v15h512v-15H488.5z     M18.5,454.26v-61c0-6.893,5.607-12.5,12.5-12.5s12.5,5.607,12.5,12.5v31v30c0,6.893-5.607,12.5-12.5,12.5    S18.5,461.152,18.5,454.26z M63.5,495.76h-25v-15.048c4.84-1.375,9.139-4.042,12.5-7.607c3.361,3.565,7.66,6.232,12.5,7.607    V495.76z M58.5,454.26v-30c0-6.893,5.607-12.5,12.5-12.5s12.5,5.607,12.5,12.5v30c0,6.893-5.607,12.5-12.5,12.5    S58.5,461.152,58.5,454.26z M103.5,495.76h-25v-15.048c4.84-1.375,9.139-4.042,12.5-7.607c3.361,3.565,7.66,6.232,12.5,7.607    V495.76z M98.5,454.26v-30c0-6.893,5.607-12.5,12.5-12.5s12.5,5.607,12.5,12.5v30c0,6.893-5.607,12.5-12.5,12.5    S98.5,461.152,98.5,454.26z M256,35.279l14.963,30.48h-29.927L256,35.279z M228.224,80.76h55.552l14.438,385h-84.427    L228.224,80.76z M313.5,495.76h-115v-15h115V495.76z M388.5,454.26v-30c0-6.893,5.607-12.5,12.5-12.5s12.5,5.607,12.5,12.5v30    c0,6.893-5.607,12.5-12.5,12.5S388.5,461.152,388.5,454.26z M433.5,495.76h-25v-15.048c4.84-1.375,9.139-4.042,12.5-7.607    c3.361,3.565,7.66,6.232,12.5,7.607V495.76z M428.5,454.26v-30c0-6.893,5.607-12.5,12.5-12.5s12.5,5.607,12.5,12.5v30    c0,6.893-5.607,12.5-12.5,12.5S428.5,461.152,428.5,454.26z M473.5,495.76h-25v-15.048c4.84-1.375,9.139-4.042,12.5-7.607    c3.361,3.565,7.66,6.232,12.5,7.607V495.76z M468.5,454.26v-30v-31c0-6.893,5.607-12.5,12.5-12.5s12.5,5.607,12.5,12.5v61    c0,6.893-5.607,12.5-12.5,12.5S468.5,461.152,468.5,454.26z" fill="#ffffff" data-original="#000000" style="" class=""></path>	</g></g><g xmlns="http://www.w3.org/2000/svg">	<g>		<path d="M151.118,111.832C147.07,97.64,133.865,87.26,118.65,87.26c-1.9,0-3.789,0.159-5.651,0.476    C104.531,78.798,92.902,73.76,80.4,73.76c-16.267,0-31.021,8.673-38.987,22.509c-0.254-0.006-0.508-0.009-0.763-0.009    c-18.61,0-33.75,15.14-33.75,33.75s15.14,33.75,33.75,33.75h105c14.474,0,26.25-11.775,26.25-26.25    C171.9,124.91,162.976,114.356,151.118,111.832z M145.651,148.759h-105c-10.339,0-18.75-8.411-18.75-18.75    c0-10.339,8.41-18.749,18.749-18.749c1.235,0,2.477,0.123,3.69,0.364l6.011,1.197l2.371-5.652    C57.412,95.986,68.276,88.76,80.4,88.76c9.467,0,18.185,4.337,23.919,11.897l3.256,4.294l5.108-1.716    c1.928-0.647,3.936-0.976,5.967-0.976c9.663,0,17.866,7.533,18.676,17.15l0.605,7.188l7.206-0.324    c0.17-0.008,0.341-0.014,0.514-0.014c6.203,0,11.25,5.047,11.25,11.25C156.901,143.712,151.854,148.759,145.651,148.759z" fill="#ffffff" data-original="#000000" style="" class=""></path>	</g></g><g xmlns="http://www.w3.org/2000/svg">	<g>		<path d="M466.6,151.76c-1.893,0-3.776,0.173-5.637,0.517C453.9,144.355,443.795,139.76,433,139.76    c-15.843,0-29.841,10.03-35.192,24.531c-11.579,2.405-20.308,12.688-20.308,24.969c0,14.061,11.439,25.5,25.5,25.5h63.6    c17.369,0,31.5-14.131,31.5-31.5C498.1,165.891,483.969,151.76,466.6,151.76z M466.6,199.758H403c-5.79,0-10.5-4.71-10.5-10.5    c0-5.746,4.64-10.43,10.37-10.499c0.156,0.011,0.312,0.02,0.469,0.024l6.351,0.219l1.257-6.228    c2.108-10.438,11.383-18.015,22.053-18.015c7.607,0,14.646,3.81,18.829,10.189l3.301,5.035l5.63-2.135    c1.908-0.723,3.873-1.09,5.84-1.09c9.098,0,16.5,7.402,16.5,16.5S475.698,199.758,466.6,199.758z" fill="#ffffff" data-original="#000000" style="" class=""></path>	</g></g><g xmlns="http://www.w3.org/2000/svg">	<g>		<path d="M380,15.76c-26.191,0-47.5,21.309-47.5,47.5c0,26.191,21.309,47.5,47.5,47.5c26.191,0,47.5-21.309,47.5-47.5    C427.5,37.069,406.191,15.76,380,15.76z M380,95.76c-17.92,0-32.5-14.579-32.5-32.5c0-17.921,14.58-32.5,32.5-32.5    c17.92,0,32.5,14.579,32.5,32.5C412.5,81.181,397.92,95.76,380,95.76z" fill="#ffffff" data-original="#000000" style="" class=""></path>	</g></g><g xmlns="http://www.w3.org/2000/svg">	<g>		<rect x="248.5" y="101.76" width="15" height="15" fill="#ffffff" data-original="#000000" style="" class=""></rect>	</g></g><g xmlns="http://www.w3.org/2000/svg">	<g>		<rect x="247" y="131.76" width="27" height="15" fill="#ffffff" data-original="#000000" style="" class=""></rect>	</g></g><g xmlns="http://www.w3.org/2000/svg">	<g>		<rect x="237" y="161.76" width="20" height="15" fill="#ffffff" data-original="#000000" style="" class=""></rect>	</g></g><g xmlns="http://www.w3.org/2000/svg">	<g>		<rect x="237" y="191.76" width="37" height="15" fill="#ffffff" data-original="#000000" style="" class=""></rect>	</g></g><g xmlns="http://www.w3.org/2000/svg">	<g>		<rect x="254" y="221.76" width="20" height="15" fill="#ffffff" data-original="#000000" style="" class=""></rect>	</g></g><g xmlns="http://www.w3.org/2000/svg">	<g>		<rect x="236" y="251.76" width="24.5" height="15" fill="#ffffff" data-original="#000000" style="" class=""></rect>	</g></g><g xmlns="http://www.w3.org/2000/svg">	<g>		<rect x="251" y="281.76" width="26" height="15" fill="#ffffff" data-original="#000000" style="" class=""></rect>	</g></g><g xmlns="http://www.w3.org/2000/svg">	<g>		<rect x="231" y="311.76" width="50" height="15" fill="#ffffff" data-original="#000000" style="" class=""></rect>	</g></g><g xmlns="http://www.w3.org/2000/svg">	<g>		<rect x="241" y="341.76" width="30" height="15" fill="#ffffff" data-original="#000000" style="" class=""></rect>	</g></g><g xmlns="http://www.w3.org/2000/svg">	<g>		<rect x="263.5" y="371.76" width="15" height="15" fill="#ffffff" data-original="#000000" style="" class=""></rect>	</g></g><g xmlns="http://www.w3.org/2000/svg">	<g>		<rect x="233.5" y="371.76" width="15" height="15" fill="#ffffff" data-original="#000000" style="" class=""></rect>	</g></g><g xmlns="http://www.w3.org/2000/svg">	<g>		<rect x="243" y="401.76" width="38" height="15" fill="#ffffff" data-original="#000000" style="" class=""></rect>	</g></g><g xmlns="http://www.w3.org/2000/svg">	<g>		<rect x="231" y="431.76" width="35" height="15" fill="#ffffff" data-original="#000000" style="" class=""></rect>	</g></g><g xmlns="http://www.w3.org/2000/svg">	<g>		<rect x="61" y="117.76" width="34" height="15" fill="#ffffff" data-original="#000000" style="" class=""></rect>	</g></g><g xmlns="http://www.w3.org/2000/svg">	<g>		<rect x="110" y="117.76" width="15" height="15" fill="#ffffff" data-original="#000000" style="" class=""></rect>	</g></g><g xmlns="http://www.w3.org/2000/svg">	<g>		<rect x="425" y="168.76" width="15" height="15" fill="#ffffff" data-original="#000000" style="" class=""></rect>	</g></g><g xmlns="http://www.w3.org/2000/svg"></g><g xmlns="http://www.w3.org/2000/svg"></g><g xmlns="http://www.w3.org/2000/svg"></g><g xmlns="http://www.w3.org/2000/svg"></g><g xmlns="http://www.w3.org/2000/svg"></g><g xmlns="http://www.w3.org/2000/svg"></g><g xmlns="http://www.w3.org/2000/svg"></g><g xmlns="http://www.w3.org/2000/svg"></g><g xmlns="http://www.w3.org/2000/svg"></g><g xmlns="http://www.w3.org/2000/svg"></g><g xmlns="http://www.w3.org/2000/svg"></g><g xmlns="http://www.w3.org/2000/svg"></g><g xmlns="http://www.w3.org/2000/svg"></g><g xmlns="http://www.w3.org/2000/svg"></g><g xmlns="http://www.w3.org/2000/svg"></g></g></svg>