<svg xmlns="http://www.w3.org/2000/svg" xmlns:xlink="http://www.w3.org/1999/xlink" id="Capa_1" x="0px" y="0px" viewBox="0 0 512.001 512.001" style="enable-background:new 0 0 512.001 512.001;" xml:space="preserve"><g>	<g>		<path fill="white" d="M449.156,126.125c-0.5-3.723-0.999-7.443-1.497-11.163c6.144-5.058,10.069-12.719,10.069-21.28    c0-15.194-12.36-27.554-27.554-27.554s-27.554,12.36-27.554,27.554c0,8.825,4.175,16.689,10.649,21.735    c-0.904,6.725-1.812,13.45-2.726,20.183c-2.192,16.13-4.404,32.425-6.493,48.819c-3.598-41.883-9.185-83.564-14.675-124.409    c-0.501-3.728-1-7.454-1.499-11.18c6.144-5.058,10.069-12.718,10.069-21.279C397.945,12.36,385.585,0,370.391,0    s-27.554,12.36-27.554,27.554c0,8.825,4.175,16.689,10.649,21.735c-0.904,6.724-1.812,13.448-2.726,20.181    c-8.821,64.906-17.942,132.021-17.942,198.553v21.996c-10.225-30.705-25.162-60.794-45.096-91.099    c-3.268-22.834-7.449-45.9-11.501-68.226c-4.479-24.673-9.109-50.185-12.436-75.103l-0.871-6.52h-13.322l-0.871,6.52    c-3.263,24.438-7.663,49.491-11.917,73.72c-3.912,22.279-7.946,45.294-11.151,68.039c-20.846,31.51-36.218,62.97-46.468,95.353    v-24.679c0-66.534-9.122-133.652-17.942-198.56c-0.915-6.73-1.822-13.453-2.725-20.174c6.474-5.046,10.649-12.91,10.649-21.734    c0-15.194-12.36-27.554-27.554-27.554c-15.194,0-27.554,12.36-27.554,27.554c0,8.561,3.925,16.222,10.07,21.28    c-0.499,3.722-0.997,7.445-1.498,11.17c-5.491,40.851-11.079,82.537-14.677,124.426c-2.089-16.396-4.299-32.696-6.493-48.837    c-0.915-6.73-1.822-13.452-2.725-20.174c6.474-5.047,10.649-12.91,10.649-21.735c0-15.194-12.36-27.554-27.554-27.554    S54.276,78.49,54.276,93.684c0,8.561,3.925,16.222,10.069,21.279c-0.499,3.725-0.998,7.451-1.499,11.18    c-9.143,67.995-18.592,138.305-18.592,208.011V511.5h15.029V334.154c0-24.127,1.174-48.391,3.068-72.642h38.798    c1.3,15.846,2.273,31.682,2.789,47.454c-18.64,38.813-29.626,67.721-29.626,122.378V511.5h15.029v-80.157    c0-58.54,12.799-84.661,36.035-132.081l1.538-3.138l1.538,3.138c23.66,48.285,35.033,74.071,35.033,132.081V511.5h15.029v-80.157    v-34.377c0-73.289,21.65-138.012,68.134-203.687l9.518-13.446l9.518,13.446c47.168,66.641,69.136,131.364,69.136,203.687v34.377    V511.5h15.029v-80.157c0-58.54,12.799-84.661,36.035-132.081l1.538-3.138l1.538,3.138c23.236,47.42,36.035,73.541,36.035,132.081    V511.5h15.029v-80.157c0-56.995-11.947-85.996-32.063-127.421v-1.541l0.327,0.013c0.549-13.588,1.428-27.229,2.548-40.883h38.811    c1.895,24.252,3.068,48.515,3.068,72.642V511.5h15.029V334.154C467.747,264.442,458.297,194.126,449.156,126.125z M81.827,81.16    c6.906,0,12.524,5.618,12.524,12.524s-5.618,12.524-12.524,12.524c-6.906,0-12.524-5.618-12.524-12.524S74.921,81.16,81.827,81.16    z M63.611,246.482c3.579-39.775,8.899-79.438,14.128-118.338c0.318-2.365,0.633-4.727,0.951-7.091    c1.031,0.117,2.076,0.184,3.138,0.184c0.847,0,1.682-0.044,2.509-0.119c0.741,5.499,1.481,10.994,2.229,16.498    c4.859,35.761,9.821,72.286,13.268,108.866H63.611z M141.61,15.03c6.906,0,12.524,5.618,12.524,12.524    s-5.618,12.524-12.524,12.524s-12.524-5.618-12.524-12.524S134.705,15.03,141.61,15.03z M137.523,62.006    c0.318-2.362,0.633-4.721,0.95-7.082c1.03,0.117,2.076,0.184,3.137,0.184c0.847,0,1.682-0.044,2.51-0.119    c0.742,5.499,1.481,10.994,2.229,16.499c4.865,35.799,9.816,72.275,13.261,108.865h-36.216    C126.973,140.576,132.294,100.909,137.523,62.006z M164.154,342.15c-5.734-15.48-13.154-31.03-22.205-49.502l-15.033-30.681    l-7.848,16.018v-9.961c0-24.127,1.174-48.39,3.068-72.642h38.799c1.987,24.252,3.22,48.521,3.22,72.642V342.15z M256.168,153.819    l-10.999,15.538c2.074-12.58,4.272-25.128,6.436-37.447c1.57-8.943,3.16-17.998,4.707-27.1c1.676,9.598,3.409,19.144,5.119,28.569    c2.221,12.239,4.48,24.704,6.604,37.207L256.168,153.819z M370.391,15.03c6.906,0,12.524,5.618,12.524,12.524    s-5.618,12.524-12.524,12.524s-12.524-5.618-12.524-12.524S363.484,15.03,370.391,15.03z M365.652,71.496    c0.748-5.507,1.488-11.005,2.23-16.506c0.827,0.075,1.663,0.119,2.509,0.119c1.061,0,2.107-0.066,3.138-0.184    c0.318,2.364,0.633,4.726,0.951,7.091c5.228,38.9,10.549,78.563,14.128,118.338h-36.216    C355.836,143.766,360.787,107.292,365.652,71.496z M392.935,273.214l-5.511-11.246l-15.033,30.681    c-10.003,20.413-18.305,37.373-24.544,54.932v-79.556c0-24.121,1.233-48.39,3.221-72.642h38.799    c1.895,24.252,3.068,48.515,3.068,72.642V273.214z M430.174,81.16c6.906,0,12.524,5.618,12.524,12.524    s-5.618,12.524-12.524,12.524s-12.524-5.618-12.524-12.524S423.268,81.16,430.174,81.16z M412.174,246.482    c3.447-36.566,8.403-73.114,13.261-108.856c0.748-5.508,1.488-11.006,2.23-16.508c0.827,0.075,1.662,0.119,2.509,0.119    c1.061,0,2.107-0.066,3.138-0.184c0.317,2.359,0.632,4.715,0.949,7.074c5.229,38.905,10.551,78.574,14.13,118.355H412.174z"></path>	</g></g><g>	<g>		<path fill="white" d="M262.491,215.384l-6.327-9.806l-6.309,9.818c-38.943,60.6-56.309,116.6-56.309,181.571v7.515h126.247v-7.515    C319.792,332.816,302.12,276.815,262.491,215.384z M208.657,389.452c1.224-55.199,16.085-103.977,47.535-155.836    c32.063,52.539,47.219,101.314,48.484,155.836H208.657z"></path>	</g></g><g>	<g>		<path fill="white" d="M133.765,346.709l-6.874-17.138l-7.047,17.067c-11.279,27.319-15.472,50.276-15.472,84.704V511.5h15.029v-80.157    c0-25.908,2.576-43.468,7.237-59.215c4.904,17.422,6.79,34.975,6.79,59.215V511.5h15.029v-80.157    C148.457,396.35,144.475,373.411,133.765,346.709z"></path>	</g></g><g>	<g>		<path fill="white" d="M394.367,346.328l-6.943-16.761l-6.943,16.761c-11.373,27.456-15.602,50.497-15.602,85.015V511.5h15.029v-80.157    c0-26.372,2.678-44.13,7.515-60.135c4.836,16.004,7.515,33.764,7.515,60.135V511.5h15.029v-80.157    C409.968,396.825,405.74,373.783,394.367,346.328z"></path>	</g></g><g>	<g>		<path fill="white" d="M282.72,418.826c-10.722,0-20.303,4.979-26.552,12.746c-6.249-7.767-15.83-12.746-26.552-12.746    c-18.785,0-34.067,15.282-34.067,34.067v59.108h121.237v-59.108C316.786,434.108,301.503,418.826,282.72,418.826z     M248.653,496.972h-38.074v-44.079c0-10.497,8.54-19.037,19.037-19.037s19.037,8.54,19.037,19.037V496.972z M301.757,496.972    h-38.074v-44.079c0-10.497,8.54-19.037,19.037-19.037s19.037,8.54,19.037,19.037V496.972z"></path>	</g></g><g>	<g>		<rect fill="white" x="422.656" y="274.036" width="15.029" height="15.029"></rect>	</g></g><g>	<g>		<rect fill="white" x="422.656" y="304.095" width="15.029" height="15.029"></rect>	</g></g><g>	<g>		<rect fill="white" x="362.879" y="243.978" width="15.029" height="15.029"></rect>	</g></g><g>	<g>		<rect fill="white" x="362.879" y="213.919" width="15.029" height="15.029"></rect>	</g></g><g>	<g>		<rect fill="white" x="74.316" y="274.036" width="15.029" height="15.029"></rect>	</g></g><g>	<g>		<rect fill="white" x="74.316" y="304.095" width="15.029" height="15.029"></rect>	</g></g><g>	<g>		<rect fill="white" x="134.092" y="243.978" width="15.029" height="15.029"></rect>	</g></g><g>	<g>		<rect fill="white" x="134.092" y="213.919" width="15.029" height="15.029"></rect>	</g></g><g>	<g>		<rect fill="white" x="248.656" y="357.71" width="15.029" height="15.029"></rect>	</g></g><g>	<g>		<rect fill="white" x="248.656" y="279.557" width="15.029" height="33.065"></rect>	</g></g><g>	<g>		<rect fill="white" x="248.656" y="327.651" width="15.029" height="15.029"></rect>	</g></g><g></g><g></g><g></g><g></g><g></g><g></g><g></g><g></g><g></g><g></g><g></g><g></g><g></g><g></g><g></g></svg>