<svg xmlns="http://www.w3.org/2000/svg" xmlns:xlink="http://www.w3.org/1999/xlink" xmlns:svgjs="http://svgjs.com/svgjs" width="512" height="512" x="0" y="0" viewBox="0 0 512 512" style="enable-background:new 0 0 512 512" xml:space="preserve" class=""><g><g xmlns="http://www.w3.org/2000/svg">	<g>		<path d="M138.453,176.741c-5.536,0-11.188,0.482-16.8,1.433l2.505,14.786c4.785-0.811,9.595-1.222,14.294-1.222    c11.892,0,22.9,2.531,32.722,7.523l6.795-13.369C166.192,179.906,152.526,176.741,138.453,176.741z" fill="#ffffff" data-original="#000000" style="" class=""></path>	</g></g><g xmlns="http://www.w3.org/2000/svg">	<g>		<path d="M321.639,217.054c-14.265,5.992-27.116,14.648-38.197,25.728l10.606,10.605c9.698-9.698,20.935-17.271,33.398-22.507    L321.639,217.054z" fill="#ffffff" data-original="#000000" style="" class=""></path>	</g></g><g xmlns="http://www.w3.org/2000/svg">	<g>		<path d="M468.409,368.428v-39.485l43.303-92.156h-39.803c-27.797,0-51.716,16.896-62.044,40.954    c-8.675-11.505-22.451-18.958-37.937-18.958h-45.648l43.991,60.988h-36.162l4.2-13.561l-14.325-4.437l-5.574,17.998h-9.947    l-54.645-63.674c5.395-8.641,11.779-16.673,19.025-23.919c22.957-22.957,52.755-36.591,84.795-39l-12.667,40.888l14.325,4.437    l18.807-60.707h-10.176c-39.926,0-77.462,15.547-105.693,43.778c-5.144,5.145-9.882,10.657-14.209,16.464l-2.548-9.837    c-7.437-30.637-26.584-55.155-53.919-69.047c-31.253-15.884-69.596-16.534-105.206-1.783l-14.34,5.942l13.528,30.487    c-3.653-0.351-7.35-0.538-11.075-0.538c-13.722,0-27.539,2.331-41.065,6.928l-7.449,2.532l12.696,32.204    c-10.199,0.205-20.163,2.367-29.636,6.479l-6.638,2.881l33.12,84.4v39.744H0v14.997h511.9v-14.997H468.409z M355.588,273.78h16.34    c17.917,0,32.494,14.577,32.494,32.494v13.497h-15.659L355.588,273.78z M288.698,319.771h-94.054l49.963-51.376L288.698,319.771z     M92.092,171.226c31.554-13.071,65.329-12.6,92.671,1.297c23.383,11.884,39.773,32.932,46.152,59.267l5.967,23.036l-63.159,64.944    h-15.876L91.956,171.283L92.092,171.226z M74.465,208.259c6.22,0,12.336,0.571,18.237,1.683l48.737,109.829H88.219l-42.45-107.672    C55.296,209.548,64.917,208.259,74.465,208.259z M21.768,252.652c7.373-2.265,15.067-3.144,22.845-2.599l27.486,69.717H48.106    L21.768,252.652z M453.411,368.428h-44.705v-18.496h-14.997v18.496h-44.706v-18.496h-14.997v18.496h-44.705v-18.496h-14.997    v18.496h-44.706v-18.496H214.6v18.496h-44.705v-18.496h-14.997v18.496h-44.706v-18.496H95.194v18.496H50.49v-33.66h108.649    h162.193h132.079V368.428z M419.418,319.771v-15.497c0-28.943,23.547-52.49,52.49-52.49h16.186l-31.946,67.987H419.418z" fill="#ffffff" data-original="#000000" style="" class=""></path>	</g></g><g xmlns="http://www.w3.org/2000/svg">	<g>		<path d="M317.188,38.992c-0.479,0-0.958,0.009-1.438,0.028c-8.776-15.672-25.33-25.523-43.604-25.523    c-14.07,0-27.144,5.743-36.58,15.916c-2.226-0.412-4.486-0.619-6.763-0.619c-16.999,0-31.723,11.742-35.99,27.703    c-13.278,2.532-23.347,14.23-23.347,28.237c0,15.85,12.894,28.744,28.744,28.744h118.977c20.536,0,37.243-16.707,37.243-37.243    S337.724,38.992,317.188,38.992z M317.188,98.481H198.211c-7.581,0-13.747-6.167-13.747-13.747s6.167-13.747,13.747-13.747    c0.212,0,0.422,0.008,0.632,0.017l7.2,0.319l0.604-7.182c0.961-11.411,10.694-20.349,22.159-20.349    c2.409,0,4.792,0.39,7.082,1.158l5.106,1.715l3.255-4.292c6.687-8.818,16.855-13.876,27.899-13.876    c14.141,0,26.813,8.429,32.285,21.474l2.37,5.651l6.011-1.198c1.44-0.287,2.912-0.433,4.376-0.433    c12.267,0,22.246,9.979,22.246,22.246S329.455,98.481,317.188,98.481z" fill="#ffffff" data-original="#000000" style="" class=""></path>	</g></g><g xmlns="http://www.w3.org/2000/svg">	<g>		<path d="M491.696,104.011c-5.35-14.497-19.345-24.526-35.185-24.526c-10.793,0-20.896,4.596-27.958,12.515    c-1.86-0.344-3.743-0.517-5.636-0.517c-17.366,0-31.494,14.128-31.494,31.494c0,17.366,14.128,31.494,31.494,31.494h63.588    c14.058,0,25.495-11.437,25.495-25.495C512,116.695,503.273,106.416,491.696,104.011z M486.506,139.473h-63.589    c-9.096,0-16.497-7.401-16.497-16.497c0-9.096,7.401-16.497,16.497-16.497c1.969,0,3.932,0.367,5.838,1.09l5.63,2.136l3.301-5.036    c4.182-6.379,11.219-10.187,18.824-10.187c10.669,0,19.941,7.575,22.049,18.011l1.257,6.227l6.35-0.217    c0.146-0.005,0.291-0.013,0.47-0.025c5.729,0.07,10.368,4.752,10.368,10.497C497.004,134.764,492.295,139.473,486.506,139.473z" fill="#ffffff" data-original="#000000" style="" class=""></path>	</g></g><g xmlns="http://www.w3.org/2000/svg">	<g>		<path d="M77.985,15.497c-1.42,0-2.833,0.111-4.233,0.333C67.658,9.283,59.107,5.499,49.99,5.499    c-13.493,0-25.442,8.396-30.249,20.616C9.863,28.486,2.5,37.395,2.5,47.991c0,12.404,10.092,22.496,22.496,22.496h52.99    c15.16,0,27.495-12.334,27.495-27.495C105.479,27.831,93.145,15.497,77.985,15.497z M77.985,55.489h-52.99    c-4.135,0-7.499-3.363-7.499-7.499c0-4.088,3.288-7.424,7.36-7.497c0.131,0.008,0.262,0.015,0.395,0.02l6.337,0.204l1.255-6.215    c1.639-8.116,8.85-14.006,17.148-14.006c5.916,0,11.39,2.962,14.643,7.924l3.301,5.035l5.629-2.135    c1.446-0.549,2.934-0.827,4.421-0.827c6.892,0,12.498,5.606,12.498,12.498C90.482,49.883,84.876,55.489,77.985,55.489z" fill="#ffffff" data-original="#000000" style="" class=""></path>	</g></g><g xmlns="http://www.w3.org/2000/svg">	<g>		<path d="M148.33,419.434l-0.05,0.097c-2.857,5.625-8.331,8.984-14.641,8.984c-6.311,0-11.785-3.358-14.643-8.984l-2.089-4.102    h-9.203l-2.084,4.103c-2.858,5.627-8.332,8.986-14.643,8.985c-6.311,0-11.784-3.359-14.642-8.985l-2.084-4.103h-9.867    l-2.084,4.103c-2.856,5.624-8.203,8.981-14.304,8.981c-6.106,0-11.458-3.36-14.317-8.99l-13.37,6.791    c5.387,10.607,15.996,17.197,27.687,17.197c0.001,0,0,0,0.001,0c8.087,0,15.658-3.155,21.338-8.612    c5.732,5.459,13.409,8.616,21.642,8.616c0.001,0,0,0,0.001,0c8.083,0,15.634-3.044,21.331-8.323    c5.698,5.278,13.246,8.321,21.331,8.32c11.893,0,22.626-6.587,27.967-17.102L148.33,419.434z" fill="#ffffff" data-original="#000000" style="" class=""></path>	</g></g><g xmlns="http://www.w3.org/2000/svg">	<g>		<path d="M370.286,440.432l-0.049,0.095c-2.857,5.625-8.331,8.984-14.641,8.984c-6.311,0-11.785-3.358-14.643-8.984l-2.089-4.102    h-9.203l-2.084,4.103c-2.858,5.627-8.332,8.986-14.643,8.985c-6.311,0-11.784-3.359-14.642-8.985l-2.084-4.103h-9.867    l-2.084,4.103c-2.856,5.624-8.203,8.981-14.304,8.981c-6.106,0-11.458-3.36-14.317-8.99l-13.37,6.791    c5.387,10.607,15.996,17.197,27.687,17.197c0.001,0,0,0,0.001,0c8.087,0,15.658-3.155,21.338-8.612    c5.732,5.459,13.409,8.616,21.642,8.616c0.001,0,0,0,0.001,0c8.083,0,15.634-3.044,21.331-8.323    c5.697,5.279,13.245,8.322,21.33,8.322c11.893,0,22.626-6.587,27.966-17.102L370.286,440.432z" fill="#ffffff" data-original="#000000" style="" class=""></path>	</g></g><g xmlns="http://www.w3.org/2000/svg">	<g>		<path d="M193.603,482.519c-2.858,5.626-8.331,8.985-14.643,8.985c-6.311,0-11.784-3.359-14.642-8.985l-2.084-4.103h-9.867    l-2.084,4.103c-2.856,5.624-8.203,8.981-14.305,8.981c-6.105,0-11.457-3.36-14.316-8.99l-13.37,6.791    c5.387,10.607,15.996,17.197,27.687,17.197c0.001,0,0,0,0.001,0c8.087,0,15.658-3.155,21.338-8.612    c5.732,5.459,13.409,8.616,21.642,8.616c0.001,0,0,0,0.001,0c11.893,0,22.628-6.588,28.013-17.191L193.603,482.519z" fill="#ffffff" data-original="#000000" style="" class=""></path>	</g></g><g xmlns="http://www.w3.org/2000/svg">	<g>		<path d="M494.544,482.519c-2.858,5.626-8.331,8.985-14.643,8.985c-6.311,0-11.784-3.359-14.642-8.985l-2.084-4.103h-9.867    l-2.084,4.103c-2.856,5.624-8.203,8.981-14.305,8.981c-6.105,0-11.457-3.36-14.316-8.99l-13.37,6.791    c5.387,10.607,15.996,17.197,27.687,17.197c0.001,0,0,0,0.001,0c8.087,0,15.658-3.155,21.338-8.612    c5.732,5.459,13.409,8.616,21.642,8.616c0.001,0,0,0,0.001,0c11.893,0,22.628-6.588,28.014-17.191L494.544,482.519z" fill="#ffffff" data-original="#000000" style="" class=""></path>	</g></g><g xmlns="http://www.w3.org/2000/svg">	<g>		<rect x="227.956" y="67.487" width="47.991" height="14.997" fill="#ffffff" data-original="#000000" style="" class=""></rect>	</g></g><g xmlns="http://www.w3.org/2000/svg">	<g>		<rect x="295.942" y="67.487" width="19.996" height="14.997" fill="#ffffff" data-original="#000000" style="" class=""></rect>	</g></g><g xmlns="http://www.w3.org/2000/svg"></g><g xmlns="http://www.w3.org/2000/svg"></g><g xmlns="http://www.w3.org/2000/svg"></g><g xmlns="http://www.w3.org/2000/svg"></g><g xmlns="http://www.w3.org/2000/svg"></g><g xmlns="http://www.w3.org/2000/svg"></g><g xmlns="http://www.w3.org/2000/svg"></g><g xmlns="http://www.w3.org/2000/svg"></g><g xmlns="http://www.w3.org/2000/svg"></g><g xmlns="http://www.w3.org/2000/svg"></g><g xmlns="http://www.w3.org/2000/svg"></g><g xmlns="http://www.w3.org/2000/svg"></g><g xmlns="http://www.w3.org/2000/svg"></g><g xmlns="http://www.w3.org/2000/svg"></g><g xmlns="http://www.w3.org/2000/svg"></g></g></svg>